PathFileType	4	(X/Y/Z)	C:/Users/opensim2020/Desktop/walking_exp_matlab/subject06_walking22_straight_03.trc																																																																																																																																		
DataRate	CameraRate	NumFrames	NumMarkers	Units	OrigDataRate	OrigDataStartFrame	OrigNumFrames																																																																																																																														
100	100	7	44	mm	100	1732	77																																																																																																																														
Frame#	Time	LFHD			RFHD			LBHD			RBHD			C7			T10			CLAV			STRN			RBAK			LSHO			LUPA			LELB			LFRM			LWRA			LWRB			LFIN			RSHO			RUPA			RELB			RFRM			RWRA			RWRB			RFIN			LASI			RASI			LPSI			RPSI			LTHI			LKNE			LTIB			LANK			LHEE			LTOE			RTHI			RKNE			RTIB			RANK			RHEE			RTOE			*39			*40			*41			*42			*43		
		X1	Y1	Z1	X2	Y2	Z2	X3	Y3	Z3	X4	Y4	Z4	X5	Y5	Z5	X6	Y6	Z6	X7	Y7	Z7	X8	Y8	Z8	X9	Y9	Z9	X10	Y10	Z10	X11	Y11	Z11	X12	Y12	Z12	X13	Y13	Z13	X14	Y14	Z14	X15	Y15	Z15	X16	Y16	Z16	X17	Y17	Z17	X18	Y18	Z18	X19	Y19	Z19	X20	Y20	Z20	X21	Y21	Z21	X22	Y22	Z22	X23	Y23	Z23	X24	Y24	Z24	X25	Y25	Z25	X26	Y26	Z26	X27	Y27	Z27	X28	Y28	Z28	X29	Y29	Z29	X30	Y30	Z30	X31	Y31	Z31	X32	Y32	Z32	X33	Y33	Z33	X34	Y34	Z34	X35	Y35	Z35	X36	Y36	Z36	X37	Y37	Z37	X38	Y38	Z38	X39	Y39	Z39	X40	Y40	Z40	X41	Y41	Z41	X42	Y42	Z42	X43	Y43	Z43	X44	Y44	Z44
																																																																																																																																					
49	0.48	167.25826	1636.25635	1361.56885	173.03296	1631.68103	1494.03943	30.10638	1593.87476	1370.98181	37.27212	1594.12085	1500.47083	20.64964	1437.80896	1422.9801	-33.65684	1111.30591	1433.01123	124.1812	1353.01794	1431.30981	153.8744	1177.36108	1423.30847	-70.64635	1273.49512	1491.78491	82.03114	1390.43518	1266.69873	95.78627	1193.55127	1184.32971	107.41757	1082.34314	1164.62598	195.68036	960.28107	1154.60986	297.37167	894.48456	1213.96021	254.32928	857.69519	1171.44568	331.45834	812.91235	1179.63074	65.96749	1389.51709	1587.54028	-34.839	1218.5282	1672.03137	-65.78477	1101.16846	1691.98645	-96.64125	986.08533	1718.20984	-91.42148	831.97986	1704.5603	-144.86255	856.20801	1735.5166	-138.13765	771.93109	1745.45935	138.33154	941.83405	1325.29553	143.92168	954.43304	1546.65442	-17.64773	975.94177	1358.9386	-7.25136	976.98242	1526.67529	35.00587	632.69525	1281.59058	4.24712	471.19998	1309.68408	-100.38756	234.57091	1324.59436	-158.44098	73.80023	1371.09021	-203.2888	66.01964	1415.4563	-20.24147	39.68256	1372.90991	174.68228	637.63049	1622.28674	233.8676	526.72632	1598.81763	237.43384	264.37241	1597.73938	265.16492	79.08609	1559.13599	239.22945	50.89159	1507.23743	416.23434	62.2653	1585.08289	73.57691	1685.92639	1423.72058	NaN	NaN	NaN	NaN	NaN	NaN	NaN	NaN	NaN	NaN	NaN	NaN
50	0.49	182.85223	1632.98279	1362.38538	188.74487	1628.31641	1494.87634	45.7975	1590.61938	1371.68567	53.01236	1590.71277	1501.14685	36.38163	1434.4436	1423.49109	-18.04155	1107.82117	1433.58533	139.82889	1349.57275	1431.82715	169.3631	1173.8324	1423.38867	-55.03665	1270.12	1491.80835	97.73768	1387.42102	1267.12988	113.50452	1190.89319	1184.46301	127.04744	1079.89771	1164.59412	218.87239	961.34766	1155.75598	322.8461	900.31165	1216.05798	281.7265	861.40149	1173.66138	360.67661	820.19562	1182.34961	81.42082	1385.98694	1588.04431	-21.8145	1216.3407	1671.68066	-54.44654	1099.47864	1691.81189	-87.73129	985.11346	1718.2179	-85.71829	830.73096	1705.24939	-138.94673	856.37115	1735.61121	-134.25893	771.95172	1746.04382	152.98048	938.48761	1324.94678	160.48874	950.80811	1546.50269	-2.83728	972.51044	1359.7262	8.76682	973.48029	1527.27942	46.04219	630.36536	1281.60327	12.42936	469.28775	1309.51343	-96.69784	234.52551	1325.10913	-157.91032	74.89998	1371.40723	-202.58698	67.71588	1416.09119	-20.1675	39.60697	1373.09851	189.63034	633.25116	1622.45435	249.6179	523.08661	1598.53418	266.66245	261.94083	1598.34277	305.73102	78.45563	1560.65259	281.40149	49.22952	1508.69788	457.55682	68.47887	1586.66821	89.29568	1682.59924	1424.50562	NaN	NaN	NaN	NaN	NaN	NaN	NaN	NaN	NaN	NaN	NaN	NaN
51	0.5	198.76836	1629.71582	1363.1731	204.50517	1624.86194	1495.64758	61.65453	1587.26746	1372.38098	68.81194	1587.32129	1501.8833	52.17582	1431.06506	1424.09204	-2.49887	1104.32263	1434.22498	155.57466	1346.0127	1432.36035	185.03471	1170.36475	1423.52161	-39.32146	1266.6012	1491.87036	113.61087	1384.38	1267.68884	131.14076	1188.20764	1184.78357	146.11906	1077.61316	1164.77588	242.04836	962.33209	1156.81775	347.75446	906.03381	1218.13489	308.70834	865.17792	1175.69739	389.2796	827.57074	1185.02698	97.00037	1382.41956	1588.57617	-8.50099	1214.10229	1671.49023	-42.73775	1097.74963	1691.80981	-78.3334	984.11334	1718.37219	-78.301	830.1922	1706.75769	-132.31996	856.46136	1735.85889	-129.64194	772.01227	1746.59058	167.45973	935.01544	1324.24609	177.22974	947.09961	1546.27869	12.14036	969.12018	1360.6062	25.58749	969.90765	1528.32214	57.27883	628.10187	1281.5061	21.00471	467.43069	1309.27979	-92.90135	234.7935	1324.91431	-157.23257	76.33049	1371.90186	-202.01157	69.93554	1416.5105	-20.04349	39.49421	1373.22583	204.27846	628.8363	1622.51135	265.29834	519.19769	1598.25903	295.25479	259.93161	1598.86157	344.68045	78.8648	1561.83667	322.41907	47.86049	1510.1947	496.84793	77.62005	1588.42346	105.06512	1679.21069	1425.31641	NaN	NaN	NaN	NaN	NaN	NaN	NaN	NaN	NaN	NaN	NaN	NaN
52	0.51	214.54465	1626.50745	1364.03088	220.2623	1621.5957	1496.57178	77.39381	1583.9635	1373.20508	84.51819	1583.76575	1502.69446	68.12105	1427.70154	1424.74316	13.2867	1100.81006	1434.85864	171.45515	1342.53418	1433.14941	200.82158	1166.86621	1423.8042	-23.67261	1263.10754	1492.01025	129.68077	1381.32422	1268.40747	148.80643	1185.5155	1185.2699	165.47073	1075.06616	1165.16406	264.85489	963.45258	1157.78149	372.0282	911.56201	1220.04736	334.98993	869.0163	1177.7124	417.23923	835.13519	1187.69202	112.76114	1378.90857	1589.32642	5.12605	1211.87915	1671.40198	-30.68689	1095.94592	1691.95288	-68.34448	983.04883	1718.68835	-72.2169	828.31378	1707.14575	-124.91503	856.5816	1736.21106	-124.18102	772.0166	1747.24255	182.46698	931.81622	1323.66785	194.3056	943.48523	1545.98364	27.33276	965.76465	1361.52539	42.3561	966.40436	1529.26074	68.53632	626.0838	1281.42456	29.95325	465.7778	1308.9707	-88.80406	235.3022	1325.09326	-156.36919	78.15363	1372.37598	-201.05508	72.60953	1417.05042	-19.97377	39.3649	1373.4082	219.14352	624.43793	1622.82275	280.98071	515.1405	1598.40442	322.44333	258.38309	1599.15833	382.00626	80.22306	1562.77527	361.89954	47.45684	1511.28113	533.8316	87.98845	1590.08423	120.76157	1675.87622	1426.22974	NaN	NaN	NaN	NaN	NaN	NaN	NaN	NaN	NaN	NaN	NaN	NaN
53	0.52	230.26849	1623.49536	1364.91284	236.13936	1618.44373	1497.42822	93.33184	1580.71863	1374.06567	100.50682	1580.51062	1503.55725	83.96201	1424.55164	1425.56396	29.16536	1097.4978	1435.63513	187.42708	1339.19885	1433.94324	216.7099	1163.47314	1423.98926	-7.94499	1259.67102	1492.31482	145.97801	1378.39685	1269.17407	166.42169	1182.85315	1185.80823	184.30682	1072.85962	1165.71338	286.7616	964.42169	1159.18359	395.56564	916.84882	1221.71851	360.4462	872.78912	1179.70068	443.93689	842.17108	1190.32495	128.72896	1375.57385	1590.25549	19.01774	1209.6449	1671.45605	-18.13328	1094.20703	1692.32678	-57.77901	982.01685	1719.21716	-64.24049	827.2619	1708.27856	-116.71876	856.64575	1736.72656	-117.86011	772.07574	1747.95789	197.60698	928.71112	1322.79333	211.81714	940.04181	1545.65198	42.84154	962.59381	1362.55127	59.38491	963.12671	1530.23279	79.98532	624.1452	1281.30322	39.33992	464.2291	1308.65967	-84.45615	236.28537	1325.50317	-155.30176	80.5253	1372.52893	-200.05017	75.96797	1417.29407	-19.71308	39.31648	1373.4884	234.21941	620.3147	1623.20227	297.06134	511.16821	1598.6228	348.53326	257.48837	1599.14966	417.04236	82.21519	1563.38879	399.13275	48.42939	1511.49243	568.00696	97.3622	1591.1228	136.55138	1672.65637	1427.18188	NaN	NaN	NaN	NaN	NaN	NaN	NaN	NaN	NaN	NaN	NaN	NaN
54	0.53	246.27858	1620.77893	1365.79272	252.06496	1615.60974	1498.40088	109.24471	1577.74475	1375.03772	116.40545	1577.38696	1504.53418	100.04144	1421.67859	1426.39893	45.06931	1094.40491	1436.29834	203.47342	1336.10217	1434.82117	232.6349	1160.40356	1424.40088	7.88843	1256.54626	1492.64282	162.53775	1375.42151	1270.12244	184.10826	1180.30933	1186.43188	203.37183	1070.56238	1166.37915	308.79251	965.34253	1160.26929	418.53888	921.82141	1223.5481	385.27515	876.47363	1181.60474	469.78409	848.91925	1192.8147	144.85695	1372.42029	1591.30115	33.35344	1207.44153	1671.6637	-5.00196	1092.43579	1692.93201	-46.38713	980.96094	1719.96289	-55.44654	826.11414	1709.57458	-107.59648	856.67224	1737.46521	-110.51226	772.12634	1748.75427	213.01099	925.87769	1322.19861	228.79482	936.75824	1544.86609	58.62156	959.6983	1363.55029	76.52497	960.10303	1531.20898	91.90351	622.50635	1280.99084	49.0874	462.93744	1308.46729	-79.94647	237.73703	1325.16748	-154.12553	83.49287	1372.49805	-198.84146	80.06726	1417.2467	-19.82057	39.20104	1373.62073	250.32227	616.89783	1624.08472	313.42792	507.63715	1598.84216	373.65021	257.12195	1599.26599	449.48428	84.56748	1563.94299	433.83292	49.43248	1512.22205	599.82367	105.873	1591.64978	152.34921	1669.70728	1428.1897	NaN	NaN	NaN	NaN	NaN	NaN	NaN	NaN	NaN	NaN	NaN	NaN
55	0.54	262.18463	1618.2572	1366.75037	268.12137	1613.04993	1499.33142	125.27719	1575.01501	1376.06445	132.54727	1574.71533	1505.70764	116.23971	1419.12415	1427.32922	61.27795	1091.69482	1436.81726	219.5614	1333.26245	1435.85278	248.80418	1157.61279	1424.87964	23.98273	1253.83765	1493.1051	179.27744	1372.72107	1271.07605	201.92369	1177.81665	1187.28479	222.26477	1068.2843	1167.21387	330.11276	966.15051	1161.46802	441.08185	926.57874	1225.60266	409.26486	879.88489	1183.59424	494.55658	855.24133	1195.10925	161.17412	1369.54602	1592.46655	48.22448	1205.35461	1671.99316	8.79464	1090.75452	1693.70813	-34.20723	979.92615	1720.9082	-45.53691	825.17096	1711.02222	-97.44344	856.74731	1738.37183	-102.1002	772.26086	1749.7345	228.87994	923.2948	1321.72058	246.28094	934.14502	1544.44214	74.72313	957.08087	1364.49353	93.99084	957.52814	1532.10071	104.30447	621.07788	1280.76379	59.58025	461.84503	1308.20288	-74.70085	239.62029	1325.09412	-152.64369	87.14555	1372.40637	-197.40575	84.93813	1417.1626	-19.74131	39.11333	1373.85107	267.19058	614.36505	1624.61682	330.0542	504.65298	1599.05652	397.94241	257.09592	1599.63086	478.84671	86.95006	1564.56824	463.54996	51.22925	1513.27222	628.99329	113.10942	1591.10107	168.26067	1667.03003	1429.2135	NaN	NaN	NaN	NaN	NaN	NaN	NaN	NaN	NaN	NaN	NaN	NaN
